<svg width="156" height="56" viewBox="0 0 156 56" fill="none" xmlns="http://www.w3.org/2000/svg">
<g clip-path="url(#clip0_117_14992)">
<path d="M22.1701 19.6123C21.6096 16.8407 19.4243 14.824 16.6049 14.4691L16.084 14.4015C14.3233 14.1818 12.9929 12.6834 12.9929 10.9202V9.11189C14.5554 8.46406 15.6538 6.93181 15.6538 5.14607C15.6538 2.77446 13.7232 0.853516 11.3397 0.853516C8.95622 0.853516 7.02565 2.77446 7.02565 5.14607C7.02565 6.89238 8.07869 8.39646 9.58464 9.06682V10.9202C9.58464 14.3959 12.1946 17.3421 15.6594 17.7702L16.1803 17.8378C17.8051 18.0406 18.6147 19.2349 18.8299 20.2827C19.045 21.3304 18.7676 22.7444 17.3465 23.5612C16.6502 23.9612 15.8972 24.2034 15.0989 24.2766L7.2691 25.009C5.97828 25.1329 4.75539 25.5216 3.63442 26.1638C1.17167 27.5834 -0.0568702 30.2873 0.509279 33.0589C1.06977 35.8305 3.2551 37.8472 6.07452 38.2021L6.59538 38.2697C8.3561 38.4894 9.68655 39.9878 9.68655 41.751V43.396C8.12964 44.0438 7.03697 45.576 7.03697 47.3562C7.03697 49.7278 8.96754 51.6487 11.351 51.6487C13.7345 51.6487 15.6651 49.7278 15.6651 47.3562C15.6651 45.6042 14.6064 44.0945 13.0948 43.4298V41.751C13.0948 38.2753 10.4848 35.3291 7.01999 34.901L6.49913 34.8334C4.87429 34.6306 4.06469 33.4363 3.84956 32.3886C3.63442 31.3408 3.91183 29.9268 5.33287 29.11C6.02923 28.71 6.78221 28.4678 7.58048 28.3946L15.4103 27.6622C16.7011 27.5383 17.924 27.1496 19.045 26.5074C21.5077 25.0878 22.7306 22.3839 22.1701 19.6123ZM81.1402 38.8781H69.67C65.7183 38.8781 62.5026 35.6784 62.5026 31.7464V21.291C62.5026 17.359 65.7183 14.1593 69.67 14.1593H75.8014C79.7531 14.1593 82.9689 17.359 82.9689 21.291V22.9359C82.9689 25.961 80.4948 28.4227 77.4546 28.4227H65.7862V31.752C65.7862 33.8814 67.53 35.6164 69.67 35.6164H81.1345V38.8781H81.1402ZM65.7919 25.1554H77.4602C78.6888 25.1554 79.6908 24.1583 79.6908 22.9359V21.291C79.6908 19.1616 77.9471 17.4266 75.8071 17.4266H69.67C67.53 17.4266 65.7862 19.1616 65.7862 21.291V25.1554H65.7919ZM134.177 16.2154H137.461V38.4781H134.177V16.2154ZM123.313 38.8781H117.181C113.23 38.8781 110.014 35.6784 110.014 31.7464V21.291C110.014 17.359 113.23 14.1593 117.181 14.1593H123.313C127.264 14.1593 130.48 17.359 130.48 21.291V31.752C130.474 35.684 127.264 38.8781 123.313 38.8781ZM117.181 17.4266C115.041 17.4266 113.297 19.1616 113.297 21.291V31.752C113.297 33.8814 115.041 35.6164 117.181 35.6164H123.313C125.453 35.6164 127.196 33.8814 127.196 31.752V21.291C127.196 19.1616 125.453 17.4266 123.313 17.4266H117.181ZM141.282 9.12879H144.566V38.4838H141.282V9.12879ZM134.177 9.23582H137.461V12.2947H134.177V9.23582ZM99.2966 39.1485H93.1652C89.2135 39.1485 85.9977 35.9488 85.9977 32.0168V21.5558C85.9977 17.6238 89.2135 14.4241 93.1652 14.4241H99.2966C103.248 14.4241 106.464 17.6238 106.464 21.5558V23.1894H103.18V21.5558C103.18 19.4264 101.437 17.6914 99.2966 17.6914H93.1652C91.0252 17.6914 89.2814 19.4264 89.2814 21.5558V32.0168C89.2814 34.1461 91.0252 35.8812 93.1652 35.8812H99.2966C101.437 35.8812 103.18 34.1461 103.18 32.0168V30.3831H106.464V32.0168C106.464 35.9488 103.248 39.1485 99.2966 39.1485ZM57.6507 39.447H54.367V38.3204C54.367 36.3713 53.6254 34.5067 52.2723 33.0645L52.227 33.0195L49.1245 29.1269L51.7005 27.0989L54.718 30.8901C56.609 32.9294 57.645 35.5714 57.645 38.3204V39.447H57.6507Z" fill="#1C1E21"/>
<path d="M5.46885 21.8636C5.83636 21.7876 6.21484 21.7334 6.59332 21.7008L9.53342 21.424L5.54015 17.0934C4.33888 15.7856 3.67517 14.0924 3.67517 12.3232H0.373047C0.373047 14.9064 1.34394 17.3865 3.1047 19.2967L5.46885 21.8636ZM15.7811 28.2076C15.4849 28.2619 15.1832 28.2998 14.8815 28.3324L11.7001 28.6309L15.6824 32.9506C16.8837 34.2585 17.5474 35.9517 17.5474 37.7208H20.855C20.855 35.1377 19.8841 32.663 18.1233 30.7474L15.7811 28.2076Z" fill="#1C1E21"/>
<path d="M38.6969 37.721L35.6016 37.7103L35.6603 18.1062C35.6656 15.8561 37.5334 14.0305 39.8282 14.0305H39.8442C41.3759 14.0464 42.8595 14.0198 44.3004 13.9986C45.7573 13.9774 47.2623 13.9508 48.8366 13.9668C49.8666 13.9774 51.8251 14.2268 53.4048 15.7818C54.4455 16.8007 55.0912 18.2336 55.2353 19.8151C55.3687 21.3223 55.0378 22.8189 54.296 24.0289C53.0206 26.1251 50.8966 26.8469 50.0427 27.0592L47.8333 27.6164C46.1202 28.0304 44.4498 28.4496 42.8381 28.8529C41.504 29.1873 40.1378 29.5322 38.7289 29.8772L38.6969 37.721ZM39.8229 17.1085C39.2359 17.1138 38.7609 17.5649 38.7556 18.1169L38.7289 26.7036C39.8656 26.4223 40.981 26.1411 42.0696 25.8704C43.6867 25.4618 45.3624 25.0425 47.0862 24.6286L49.2795 24.0766C49.7598 23.9599 50.9553 23.5565 51.6384 22.4368C52.4762 21.0622 52.2841 19.019 51.2168 17.9683C50.3842 17.151 49.2475 17.0501 48.7939 17.0448C47.2676 17.0289 45.7787 17.0555 44.3431 17.0767C42.8915 17.0979 41.3865 17.1244 39.8229 17.1085Z" fill="#1C1E21"/>
</g>
<defs>
<clipPath id="clip0_117_14992">
<rect width="154.843" height="54.8916" fill="white" transform="translate(0.373047 0.853516)"/>
</clipPath>
</defs>
</svg>
