<svg width="150" height="49" viewBox="0 0 150 49" fill="none" xmlns="http://www.w3.org/2000/svg">
<g clip-path="url(#clip0_117_14996)">
<path d="M29.519 32.0724C31.0911 31.9082 32.2838 30.5411 32.2296 28.9003C32.1755 27.2597 30.82 25.9471 29.1936 25.9471H29.0853C27.4045 26.0019 26.1035 27.4237 26.1577 29.1191C26.212 29.9395 26.5371 30.6504 27.0251 31.1426C25.1819 34.8069 22.3628 37.4866 18.1341 39.7289C15.2608 41.2602 12.2791 41.8071 9.29748 41.4244C6.85782 41.0962 4.96035 40.0025 3.76748 38.1976C2.03277 35.5178 1.87018 32.6192 3.33397 29.7207C4.36408 27.6425 5.9903 26.1111 7.02041 25.3455C6.80357 24.6345 6.47823 23.4314 6.31564 22.5565C-1.54534 28.2988 -0.732065 36.0647 1.65334 39.7289C3.44231 42.4635 7.07466 44.1588 11.0864 44.1588C12.1706 44.1588 13.2548 44.0494 14.3392 43.7761C21.2786 42.4088 26.5373 38.2523 29.519 32.0724ZM39.0606 25.2909C34.9403 20.4235 28.8685 17.7438 21.9291 17.7438H21.0617C20.5738 16.7594 19.5437 16.103 18.4052 16.103H18.2967C16.6163 16.1577 15.3152 17.5796 15.3693 19.2751C15.4236 20.9157 16.7789 22.2283 18.4052 22.2283H18.5136C19.7063 22.1735 20.7364 21.4079 21.1701 20.3688H22.1459C26.2662 20.3688 30.1695 21.5719 33.6935 23.9236C36.4041 25.7284 38.3558 28.0801 39.44 30.9239C40.3616 33.2208 40.3074 35.4631 39.3315 37.3773C37.8136 40.2758 35.2656 41.8619 31.9044 41.8619C29.7358 41.8619 27.6758 41.2055 26.5914 40.7133C25.9951 41.2602 24.9108 42.1351 24.1517 42.6822C26.4831 43.7759 28.8685 44.3776 31.1454 44.3776C36.3498 44.3776 40.199 41.4789 41.6628 38.5805C43.235 35.4084 43.1265 29.9395 39.0606 25.2909ZM11.5201 33.0019C11.5744 34.6427 12.9297 35.9551 14.556 35.9551H14.6645C16.3452 35.9006 17.6462 34.4785 17.592 32.7832C17.5379 31.1424 16.1824 29.83 14.556 29.83H14.4477C14.3392 29.83 14.1765 29.83 14.0683 29.8846C11.8455 26.1657 10.9239 22.1188 11.2492 17.7436C11.4659 14.4622 12.5502 11.6183 14.4477 9.26659C16.0198 7.24306 19.0558 6.25867 21.116 6.20411C26.8625 6.09466 29.302 13.3136 29.4647 16.2123C30.1695 16.3763 31.3622 16.7592 32.1755 17.0327C31.5248 8.17307 26.1035 3.5791 20.8991 3.5791C16.0198 3.5791 11.5201 7.13395 9.73099 12.3841C7.23725 19.3844 8.86363 26.1111 11.8996 31.416C11.6286 31.7988 11.4659 32.4003 11.5201 33.0019Z" fill="#764ABC"/>
</g>
<path d="M57.4101 13.3413C59.4841 13.3413 61.197 13.6093 62.5486 14.1453C63.9002 14.6813 64.9023 15.497 65.5548 16.5922C66.2073 17.6642 66.5336 19.0275 66.5336 20.6821C66.5336 21.8939 66.3355 22.9309 65.9393 23.7931C65.5431 24.6554 65.0071 25.3778 64.3313 25.9604C63.6788 26.5197 62.9681 26.9741 62.199 27.3237L68.9105 38.2998H63.5973L58.1791 28.4423H55.1379V38.2998H50.4539V13.3413H57.4101ZM57.2003 17.0816H55.1379V24.7719H57.2703C58.2723 24.7719 59.0996 24.6204 59.7521 24.3175C60.4279 24.0145 60.929 23.5717 61.2552 22.9892C61.6048 22.4066 61.7796 21.6841 61.7796 20.8219C61.7796 19.913 61.6164 19.1906 61.2902 18.6546C60.9639 18.0953 60.4629 17.6992 59.7871 17.4661C59.1113 17.2098 58.249 17.0816 57.2003 17.0816ZM78.9177 19.0042C80.549 19.0042 81.9473 19.3537 83.1124 20.0529C84.3009 20.7287 85.2214 21.7074 85.874 22.9892C86.5265 24.2476 86.8527 25.7856 86.8527 27.6033V29.8405H75.2474C75.294 31.565 75.7135 32.905 76.5058 33.8604C77.3214 34.7926 78.4633 35.2586 79.9315 35.2586C81.0967 35.2586 82.1337 35.1421 83.0425 34.9091C83.9514 34.6527 84.8952 34.2915 85.874 33.8255V37.356C84.9884 37.7988 84.0679 38.125 83.1124 38.3348C82.157 38.5445 80.9801 38.6494 79.5819 38.6494C77.8108 38.6494 76.2378 38.2998 74.8629 37.6007C73.5112 36.8783 72.4509 35.7946 71.6819 34.3498C70.9129 32.905 70.5283 31.1106 70.5283 28.9666C70.5283 26.7993 70.8779 24.9816 71.577 23.5135C72.2761 22.022 73.2549 20.9035 74.5133 20.1577C75.795 19.3887 77.2632 19.0042 78.9177 19.0042ZM78.9877 22.2551C77.939 22.2551 77.0884 22.6396 76.4359 23.4086C75.8067 24.1543 75.4338 25.2729 75.3173 26.7644H82.4483C82.4483 25.8788 82.3201 25.0982 82.0638 24.4223C81.8074 23.7465 81.4229 23.2222 80.9102 22.8493C80.4208 22.4532 79.78 22.2551 78.9877 22.2551ZM96.7002 38.6494C94.6727 38.6494 93.0298 37.8337 91.7714 36.2025C90.513 34.5479 89.8838 32.101 89.8838 28.8617C89.8838 25.6225 90.5246 23.1756 91.8063 21.521C93.0881 19.8431 94.7659 19.0042 96.84 19.0042C97.7022 19.0042 98.448 19.1324 99.0772 19.3887C99.7297 19.6217 100.289 19.948 100.755 20.3675C101.221 20.7869 101.629 21.253 101.978 21.7657H102.118C102.072 21.4394 102.013 20.9384 101.944 20.2626C101.874 19.5868 101.839 18.9576 101.839 18.375V11.7334H106.488V38.2998H102.922L102.048 35.8179H101.839C101.536 36.3306 101.151 36.8084 100.685 37.2511C100.219 37.6706 99.6598 38.0085 99.0072 38.2648C98.3547 38.5212 97.5857 38.6494 96.7002 38.6494ZM98.2382 35.0839C99.6598 35.0839 100.662 34.6178 101.244 33.6856C101.827 32.7535 102.118 31.3436 102.118 29.456V28.8967C102.118 26.8459 101.839 25.2846 101.279 24.2126C100.72 23.1406 99.6947 22.6046 98.2033 22.6046C97.0381 22.6046 96.1409 23.1639 95.5117 24.2825C94.9058 25.3778 94.6028 26.9275 94.6028 28.9316C94.6028 30.9358 94.9174 32.4622 95.5466 33.5109C96.1758 34.5595 97.073 35.0839 98.2382 35.0839ZM127.734 19.3537V38.2998H124.168L123.574 35.8529H123.329C122.957 36.5054 122.479 37.0414 121.896 37.4609C121.314 37.857 120.673 38.1483 119.974 38.3348C119.275 38.5445 118.552 38.6494 117.806 38.6494C116.501 38.6494 115.371 38.4047 114.416 37.9153C113.46 37.4259 112.714 36.6802 112.178 35.6781C111.666 34.6527 111.409 33.3361 111.409 31.7281V19.3537H116.059V30.8542C116.059 32.2524 116.292 33.3128 116.758 34.0352C117.247 34.7343 118.016 35.0839 119.065 35.0839C120.113 35.0839 120.929 34.8392 121.512 34.3498C122.118 33.8371 122.537 33.103 122.77 32.1476C123.003 31.1921 123.12 30.0153 123.12 28.617V19.3537H127.734ZM136.731 28.617L130.893 19.3537H136.171L139.807 25.7856L143.442 19.3537H148.685L142.778 28.617L148.965 38.2998H143.722L139.807 31.4135L135.857 38.2998H130.613L136.731 28.617Z" fill="black"/>
<defs>
<clipPath id="clip0_117_14996">
<rect width="42.6024" height="40.9639" fill="white" transform="translate(0 3.57715)"/>
</clipPath>
</defs>
</svg>
