<svg width="165" height="27" viewBox="0 0 165 27" fill="none" xmlns="http://www.w3.org/2000/svg">
<path d="M20.6896 25.8134H0.517578V22.5645L13.3541 5.36249H1.44338V0.76869H20.6544V3.92998L8.09743 21.2375H20.6896V25.8134ZM44.7913 14.9674C44.7913 22.489 41.2866 26.2498 34.2773 26.2498C27.4774 26.2498 24.0774 22.5764 24.0774 15.2297V0.76869H29.7365V15.2994C29.7365 19.3511 31.3199 21.377 34.4865 21.377C37.5956 21.377 39.1501 19.4211 39.1501 15.5093V0.76869H44.7913V14.9674ZM49.0877 24.853V19.2643C50.1003 20.114 51.2006 20.7542 52.3884 21.185C53.5759 21.6043 54.7752 21.8139 55.9861 21.8139C56.6963 21.8139 57.3133 21.75 57.8371 21.622C58.3728 21.4936 58.8154 21.3188 59.1647 21.0974C59.5256 20.8649 59.7934 20.5972 59.9683 20.2944C60.1428 19.98 60.23 19.6422 60.23 19.281C60.23 18.7922 60.0903 18.3558 59.8109 17.9719C59.5315 17.588 59.1472 17.2327 58.658 16.906C58.1811 16.5801 57.6108 16.2657 56.9471 15.9629C56.2834 15.6605 55.5672 15.3521 54.7986 15.0377C52.8425 14.2226 51.3812 13.2271 50.4146 12.0511C49.46 10.8747 48.9827 9.45414 48.9827 7.78934C48.9827 6.4858 49.2446 5.36805 49.7684 4.4361C50.2926 3.49302 51.0028 2.71884 51.899 2.11356C52.8075 1.50829 53.8555 1.06576 55.043 0.785978C56.2305 0.495066 57.488 0.349609 58.8154 0.349609C60.1193 0.349609 61.2718 0.431081 62.273 0.594024C63.2864 0.745441 64.2179 0.984093 65.0676 1.30998V6.5321C64.6488 6.24118 64.1889 5.98505 63.6882 5.76368C63.1994 5.54232 62.6928 5.36189 62.1686 5.22239C61.6448 5.07098 61.1208 4.9603 60.5966 4.89035C60.0843 4.8204 59.5955 4.78543 59.1301 4.78543C58.4895 4.78543 57.9073 4.84961 57.3835 4.97798C56.8593 5.09442 56.4167 5.26333 56.0559 5.48469C55.695 5.70606 55.4156 5.97352 55.2177 6.28709C55.0198 6.58992 54.9208 6.93329 54.9208 7.3172C54.9208 7.73648 55.0313 8.11503 55.2523 8.45284C55.4736 8.77872 55.788 9.09308 56.1954 9.39592C56.6031 9.68683 57.0979 9.97794 57.6797 10.2692C58.2624 10.5486 58.9203 10.8396 59.6535 11.142C60.655 11.5613 61.5516 12.0096 62.3433 12.4869C63.1465 12.9526 63.8334 13.4824 64.4041 14.0762C64.9748 14.6699 65.4114 15.3511 65.7138 16.1197C66.0167 16.8764 66.1681 17.7612 66.1681 18.7743C66.1681 20.1716 65.9002 21.3476 65.3645 22.3022C64.8407 23.2453 64.1248 24.0137 63.2166 24.6074C62.3085 25.1896 61.249 25.6089 60.038 25.8653C58.8386 26.1212 57.5695 26.2492 56.2305 26.2492C54.8566 26.2492 53.5467 26.1327 52.3008 25.8998C51.0668 25.667 49.9958 25.3184 49.0877 24.853ZM87.8769 5.36129H80.7341V25.8128H75.075V5.36189H67.9672V0.76869H87.8769V5.36129ZM110.773 25.8128H104.627L102.845 20.2414H93.9378L92.1739 25.8128H86.0611L95.1778 0.76869H101.866L110.773 25.8128ZM101.552 15.9105L98.8625 7.49187C98.6646 6.86315 98.5249 6.11222 98.4434 5.23909H98.3033C98.2453 5.97273 98.0998 6.70041 97.867 7.42212L95.1426 15.9105H101.552ZM136.429 25.8122H130.736L120.414 10.0767C119.809 9.15707 119.389 8.46436 119.156 7.99858H119.086C119.18 8.88364 119.226 10.2343 119.226 12.0505V25.8128H113.899V0.76869H119.978L129.915 16.0154C130.369 16.7025 130.788 17.3837 131.172 18.0589H131.242C131.149 17.4767 131.103 16.3299 131.103 14.6186V0.76869H136.429V25.8122ZM142.158 25.8122V0.769883H151.03C159.925 0.769883 164.373 4.83908 164.373 12.9775C164.373 16.8778 163.156 19.9922 160.723 22.3207C158.301 24.6495 155.07 25.814 151.03 25.814L142.158 25.8122ZM147.799 5.36129V21.2381H150.593C153.038 21.2381 154.954 20.5046 156.339 19.0378C157.736 17.5705 158.435 15.5734 158.435 13.0466C158.435 10.6601 157.742 8.78568 156.357 7.42332C154.983 6.04943 153.05 5.36249 150.558 5.36249L147.799 5.36129Z" fill="black"/>
</svg>
