<svg width="126" height="36" viewBox="0 0 126 36" fill="none" xmlns="http://www.w3.org/2000/svg">
<g clip-path="url(#clip0_117_15093)">
<path d="M30.457 0.0302734V27.7706L33.8936 27.7842V14.5803H42.1966V11.0856H33.8936V3.52501H44.7019V0.0302734H30.457ZM50.9061 5.65992C52.1522 5.65992 53.1491 4.61286 53.1491 3.33463C53.1491 2.0564 52.1391 1.00934 50.9061 1.00934C49.66 1.00934 48.6632 2.0564 48.6632 3.33463C48.6632 4.61286 49.6731 5.65992 50.9061 5.65992ZM49.1616 9.15465V27.7706H52.5982V9.15465H49.1616Z" fill="black"/>
<path fill-rule="evenodd" clip-rule="evenodd" d="M65.3608 8.61035C60.7831 8.61035 57.5957 12.6218 57.5957 17.3812C57.5957 22.1405 60.7831 26.152 65.3608 26.152C67.4595 26.152 69.1778 25.3089 70.437 23.9491V26.4104C70.437 29.4971 68.1023 32.0672 65.046 32.0672C63.9442 32.0672 62.8555 31.6321 61.9898 31.0065L60.2584 34.1069C61.6357 35.0316 63.2753 35.5619 65.0329 35.5619C69.9124 35.5619 73.8605 31.4689 73.8605 26.4104V9.15428H70.437V10.8133C69.1778 9.45344 67.4595 8.61035 65.3608 8.61035ZM61.0454 17.3812C61.0454 14.4304 63.2228 12.1051 65.7412 12.1051C68.2597 12.1051 70.437 14.4304 70.437 17.3812C70.437 20.332 68.2597 22.6573 65.7412 22.6573C63.2228 22.6573 61.0454 20.332 61.0454 17.3812Z" fill="black"/>
<path d="M86.2826 12.1051C84.2495 12.1051 82.5968 13.9 82.5968 16.0078V27.7702H79.1602V9.15428H82.5968V10.8541C83.6068 9.50783 85.089 8.61035 87.0302 8.61035C89.4437 8.61035 91.2932 9.84779 92.3688 11.7515C93.5624 9.91578 95.5037 8.61035 97.8516 8.61035C101.774 8.61035 104.213 11.8875 104.226 15.9398V27.7702H100.79V15.9942C100.79 13.8864 99.137 12.0915 97.1039 12.0915C95.0708 12.0915 93.4181 13.8864 93.4181 15.9942V27.7702H89.9815V15.9942C89.9684 13.8864 88.3157 12.1051 86.2826 12.1051Z" fill="black"/>
<path fill-rule="evenodd" clip-rule="evenodd" d="M122.564 11.262C121.03 9.61662 118.931 8.61035 116.504 8.61035C111.389 8.61035 107.742 13.1113 107.742 18.469C107.742 23.8267 111.376 28.3277 116.504 28.3277C118.931 28.3277 121.03 27.3078 122.564 25.6761V27.7702H126.001V9.15428H122.564V11.262ZM111.192 18.469C111.192 14.9199 113.815 12.1051 116.885 12.1051C119.941 12.1051 122.577 14.9063 122.577 18.469C122.577 22.0182 119.954 24.833 116.885 24.833C113.815 24.8194 111.192 22.0182 111.192 18.469Z" fill="black"/>
<path d="M11.5566 18.0066C11.5566 14.7022 14.1407 12.0098 17.3411 12.0098C20.5285 12.0098 23.1257 14.6886 23.1257 18.0066C23.1257 21.3109 20.5416 24.0034 17.3411 24.0034C14.1538 24.0034 11.5566 21.3109 11.5566 18.0066Z" fill="#1ABCFE"/>
<path d="M0 29.987C0 26.6827 2.58401 23.9902 5.78451 23.9902H11.569V29.987C11.569 33.2914 8.98501 35.9838 5.78451 35.9838C2.58401 35.9838 0 33.305 0 29.987Z" fill="#0ACF83"/>
<path d="M11.5566 0.0301997V12.0102H17.3411C20.5285 12.0102 23.1257 9.33135 23.1257 6.0134C23.1257 2.70904 20.5416 0.0166016 17.3411 0.0166016H11.5566V0.0301997Z" fill="#FF7262"/>
<path d="M0 6.02707C0 9.33143 2.58401 12.0239 5.78451 12.0239H11.569V0.0302734H5.78451C2.58401 0.0302734 0 2.70911 0 6.02707Z" fill="#F24E1E"/>
<path d="M0 18.0066C0 21.3109 2.58401 24.0034 5.78451 24.0034H11.569V12.0098H5.78451C2.58401 12.0098 0 14.7022 0 18.0066Z" fill="#A259FF"/>
</g>
<defs>
<clipPath id="clip0_117_15093">
<rect width="126" height="36" fill="white"/>
</clipPath>
</defs>
</svg>
