<svg width="70" height="70" viewBox="0 0 70 70" fill="none" xmlns="http://www.w3.org/2000/svg">
<g clip-path="url(#clip0_117_15025)">
<path fill-rule="evenodd" clip-rule="evenodd" d="M26.2251 37.7344H34.6311C33.1841 32.8125 31.7589 28.2625 30.3568 23.6381C28.9961 28.2789 27.6158 32.8125 26.2251 37.7344ZM67.8735 0.546875H1.5709C0.375432 0.546875 0.546604 0.807188 0.546604 1.96055V68.3479C0.546604 69.5002 0.375432 69.4531 1.48668 69.4531H67.9577C69.0684 69.4531 69.4529 69.5002 69.4529 68.3473V2.04477C69.4529 0.807188 69.0689 0.546875 67.8735 0.546875ZM42.2721 52.5C41.3768 52.5 40.4783 52.4273 39.5875 52.4912C38.9449 52.5394 38.73 52.2692 38.5588 51.7114C37.7308 49.0148 36.8509 46.3192 36.0224 43.6231C35.8556 43.0806 35.6171 42.8827 35.0293 42.8898C32.0089 42.9248 28.9868 42.9215 25.9659 42.8859C25.3299 42.8783 25.0373 43.0478 24.8557 43.6789C24.0868 46.3608 23.2457 49.0208 22.4686 51.6999C22.3002 52.2807 22.0443 52.4836 21.4274 52.4677C19.6129 52.4223 17.7956 52.4502 15.8088 52.4502C16.3332 50.785 16.809 49.245 17.3012 47.7116C20.3167 38.3053 23.3425 28.8991 26.3361 19.4868C26.545 18.8316 26.8354 18.6298 27.5081 18.6446C29.6332 18.6916 31.76 18.6566 33.8863 18.6446C34.2839 18.6419 34.5551 18.6654 34.7006 19.1171C38.258 30.118 41.828 41.1868 45.3947 52.1866C45.41 52.2364 45.4002 52.5 45.4084 52.5H42.2721ZM53.5935 52.5H47.031V27.8906H53.5935V52.5ZM50.1208 24.5705C48.1165 24.5678 46.6815 23.188 46.6679 21.251C46.6547 19.3195 48.1482 17.8828 50.1711 17.8806C52.2099 17.8784 53.6465 19.268 53.6624 21.2554C53.6766 23.1941 52.2039 24.5738 50.1208 24.5705Z" fill="#FAA625"/>
</g>
<defs>
<clipPath id="clip0_117_15025">
<rect width="70" height="70" fill="white"/>
</clipPath>
</defs>
</svg>
