<svg width="70" height="70" viewBox="0 0 70 70" fill="none" xmlns="http://www.w3.org/2000/svg">
<g clip-path="url(#clip0_117_15021)">
<path fill-rule="evenodd" clip-rule="evenodd" d="M27.4783 22.7588C25.4647 22.2529 23.4484 22.4153 21.3205 22.7467C21.3205 26.4682 21.3128 30.0896 21.3407 33.7116C21.3418 33.897 21.6202 34.2196 21.8006 34.2442C24.121 34.5576 26.4288 34.5827 28.5988 33.5251C30.8438 32.4313 31.9873 30.1443 31.6909 27.4591C31.4218 25.0141 29.9742 23.386 27.4783 22.7588ZM69.4531 34.9798V1.79648C69.4531 0.650234 69.4657 0.546875 68.3528 0.546875H1.90258C0.820313 0.546875 0.546875 0.650781 0.546875 1.74234V68.1926C0.546875 69.2962 0.684688 69.2978 1.75492 69.2978C23.9334 69.2984 46.1781 69.2929 68.3567 69.318C69.2169 69.3191 69.4477 69.09 69.4455 68.2467C69.4159 57.1577 69.4531 46.0677 69.4531 34.9798ZM30.8175 38.1735C27.7785 39.2574 24.6094 39.3181 21.3281 39.0638V51.4062H15.3125V50.6395C15.3125 40.3063 15.2649 29.9742 15.2359 19.6416C15.2327 18.7835 15.3688 18.369 16.3357 18.2705C20.8923 17.8046 25.4231 17.2807 29.954 18.3433C34.8245 19.4846 37.6327 22.7046 37.8459 27.1534C38.1101 32.6627 35.6891 36.4361 30.8175 38.1735ZM55.0495 45.1484C54.8177 48.3044 53.0381 50.3765 50.1195 51.3784C46.2137 52.7193 42.3292 52.4081 38.512 50.8911C37.887 50.6423 37.7661 50.3273 37.9723 49.6902C38.348 48.5275 38.6231 47.332 38.9129 46.2525C40.5267 46.7261 42.0613 47.3173 43.651 47.5967C44.7738 47.7941 45.9873 47.6782 47.1286 47.4994C48.1518 47.3386 48.8879 46.6441 49.0558 45.5459C49.2264 44.4298 48.8901 43.4629 47.9046 42.869C47.1215 42.3976 46.2585 42.0602 45.4311 41.6648C44.1006 41.0287 42.6825 40.53 41.4553 39.7343C36.6259 36.6023 38.1981 30.7748 41.4209 28.5802C43.1452 27.4066 45.0532 26.886 47.0958 26.8144C49.4982 26.7302 51.8115 27.1447 54.0838 28.2488L52.8834 32.5084C51.9318 32.1716 51.0459 31.7341 50.1107 31.5602C49.0011 31.3534 47.8373 31.238 46.7174 31.3294C45.2156 31.4524 44.3363 32.4888 44.3363 33.7739C44.3363 34.5352 44.625 35.1794 45.2599 35.5485C46.171 36.0784 47.1379 36.5154 48.096 36.9589C49.1329 37.4385 50.2277 37.8071 51.2258 38.3545C53.8891 39.8147 55.2754 42.0733 55.0495 45.1484Z" fill="#80B5E2"/>
<g clip-path="url(#clip1_117_15021)">
<path fill-rule="evenodd" clip-rule="evenodd" d="M27.4783 22.7588C25.4647 22.2529 23.4484 22.4153 21.3205 22.7467C21.3205 26.4682 21.3128 30.0896 21.3407 33.7116C21.3418 33.897 21.6202 34.2196 21.8006 34.2442C24.121 34.5576 26.4288 34.5827 28.5988 33.5251C30.8438 32.4313 31.9873 30.1443 31.6909 27.4591C31.4218 25.0141 29.9742 23.386 27.4783 22.7588ZM69.4531 34.9798V1.79648C69.4531 0.650234 69.4657 0.546875 68.3528 0.546875H1.90258C0.820313 0.546875 0.546875 0.650781 0.546875 1.74234V68.1926C0.546875 69.2962 0.684688 69.2978 1.75492 69.2978C23.9334 69.2984 46.1781 69.2929 68.3567 69.318C69.2169 69.3191 69.4477 69.09 69.4455 68.2467C69.4159 57.1577 69.4531 46.0677 69.4531 34.9798ZM30.8175 38.1735C27.7785 39.2574 24.6094 39.3181 21.3281 39.0638V51.4062H15.3125V50.6395C15.3125 40.3063 15.2649 29.9742 15.2359 19.6416C15.2327 18.7835 15.3688 18.369 16.3357 18.2705C20.8923 17.8046 25.4231 17.2807 29.954 18.3433C34.8245 19.4846 37.6327 22.7046 37.8459 27.1534C38.1101 32.6627 35.6891 36.4361 30.8175 38.1735ZM55.0495 45.1484C54.8177 48.3044 53.0381 50.3765 50.1195 51.3784C46.2137 52.7193 42.3292 52.4081 38.512 50.8911C37.887 50.6423 37.7661 50.3273 37.9723 49.6902C38.348 48.5275 38.6231 47.332 38.9129 46.2525C40.5267 46.7261 42.0613 47.3173 43.651 47.5967C44.7738 47.7941 45.9873 47.6782 47.1286 47.4994C48.1518 47.3386 48.8879 46.6441 49.0558 45.5459C49.2264 44.4298 48.8901 43.4629 47.9046 42.869C47.1215 42.3976 46.2585 42.0602 45.4311 41.6648C44.1006 41.0287 42.6825 40.53 41.4553 39.7343C36.6259 36.6023 38.1981 30.7748 41.4209 28.5802C43.1452 27.4066 45.0532 26.886 47.0958 26.8144C49.4982 26.7302 51.8115 27.1447 54.0838 28.2488L52.8834 32.5084C51.9318 32.1716 51.0459 31.7341 50.1107 31.5602C49.0011 31.3534 47.8373 31.238 46.7174 31.3294C45.2156 31.4524 44.3363 32.4888 44.3363 33.7739C44.3363 34.5352 44.625 35.1794 45.2599 35.5485C46.171 36.0784 47.1379 36.5154 48.096 36.9589C49.1329 37.4385 50.2277 37.8071 51.2258 38.3545C53.8891 39.8147 55.2754 42.0733 55.0495 45.1484Z" fill="#80B5E2"/>
</g>
</g>
<defs>
<clipPath id="clip0_117_15021">
<rect width="70" height="70" fill="white"/>
</clipPath>
<clipPath id="clip1_117_15021">
<rect width="70" height="70" fill="white"/>
</clipPath>
</defs>
</svg>
