<svg width="54" height="76" viewBox="0 0 54 76" fill="none" xmlns="http://www.w3.org/2000/svg">
<path d="M48.6639 69.3475L26.8491 75.2213L5.034 69.3475L0 14.8105H53.6985L48.6639 69.3475Z" fill="#2062AF"/>
<path d="M26.8477 19.2285V70.537L26.897 70.5505L44.5508 65.7967L48.6256 19.2285H26.8477Z" fill="#3C9CD7"/>
<path d="M14.4679 6.79796V3.55193H19.2039V0H10.916V10.0392H19.2039V6.79796H14.4679ZM27.7234 3.55193H31.0344V0H22.7457V3.55193C23.8546 4.66084 24.433 5.1916 26.0368 6.79539C25.0992 6.79539 22.7457 6.79876 22.7457 6.7986V10.0392H31.0344V6.79796L27.7234 3.55193ZM39.4711 3.55193H42.782V0H34.493V3.55193C35.6019 4.66084 36.1805 5.1916 37.7843 6.79539C36.8471 6.79539 34.493 6.79876 34.493 6.7986V10.0392H42.7821V6.79796L39.4711 3.55193Z" fill="black"/>
<path d="M26.8303 32.8646L11.2168 39.3672L11.7346 45.8053L26.8303 39.3509L42.8883 32.4853L43.5541 25.8994L26.8303 32.8646Z" fill="white"/>
<path d="M11.2168 39.3669L11.7346 45.805L26.8303 39.3506V32.8643L11.2168 39.3669Z" fill="url(#paint0_linear_117_14961)"/>
<path d="M43.5538 25.8994L26.8301 32.8644V39.3507L42.8881 32.4852L43.5538 25.8994Z" fill="url(#paint1_linear_117_14961)"/>
<path d="M11.2383 39.3662L11.7562 45.8043L34.9187 45.8781L34.4006 54.4621L26.7788 56.6079L19.452 54.7579L19.0081 49.4299H12.2002L13.0882 59.7159L26.8528 63.7857L40.5427 59.7897L42.3188 39.3662H11.2383Z" fill="url(#paint2_linear_117_14961)"/>
<path opacity="0.05" d="M26.8303 39.3662H11.2168L11.7346 45.8043L26.8303 45.8525V39.3662ZM26.8303 56.5874L26.7564 56.6081L19.4305 54.7581L18.9866 49.4301H12.1789L13.0668 59.716L26.8303 63.7859V56.5874Z" fill="black"/>
<path d="M9.81055 25.8994H43.554L42.8882 32.4853H10.6245L9.81055 25.8994Z" fill="url(#paint3_linear_117_14961)"/>
<path opacity="0.05" d="M26.8303 25.8994H9.81055L10.6245 32.4853H26.8303V25.8994Z" fill="black"/>
<defs>
<linearGradient id="paint0_linear_117_14961" x1="19.0236" y1="45.8051" x2="19.0236" y2="32.8644" gradientUnits="userSpaceOnUse">
<stop offset="0.387" stop-color="#D1D3D4" stop-opacity="0"/>
<stop offset="1" stop-color="#D1D3D4"/>
</linearGradient>
<linearGradient id="paint1_linear_117_14961" x1="35.1918" y1="39.3509" x2="35.1918" y2="25.8996" gradientUnits="userSpaceOnUse">
<stop offset="0.387" stop-color="#D1D3D4" stop-opacity="0"/>
<stop offset="1" stop-color="#D1D3D4"/>
</linearGradient>
<linearGradient id="paint2_linear_117_14961" x1="11.2383" y1="51.5761" x2="42.3187" y2="51.5761" gradientUnits="userSpaceOnUse">
<stop stop-color="#E8E7E5"/>
<stop offset="1" stop-color="white"/>
</linearGradient>
<linearGradient id="paint3_linear_117_14961" x1="9.81055" y1="29.1924" x2="43.5538" y2="29.1924" gradientUnits="userSpaceOnUse">
<stop stop-color="#E8E7E5"/>
<stop offset="1" stop-color="white"/>
</linearGradient>
</defs>
</svg>
