<svg width="70" height="71" viewBox="0 0 70 71" fill="none" xmlns="http://www.w3.org/2000/svg">
<g clip-path="url(#clip0_117_14936)">
<path d="M13.5826 15.8295C12.8839 15.4195 12.1103 15.1532 11.3073 15.046C10.5043 14.9389 9.68791 14.9931 8.90611 15.2055C8.12431 15.418 7.39279 15.7843 6.7544 16.2831C6.11602 16.7819 5.58364 17.4031 5.18845 18.1104C4.89814 18.6278 4.68213 19.1835 4.54678 19.7612C3.75345 23.1183 5.78345 26.4929 9.07928 27.2979L9.07637 43.9199C7.93002 44.2051 6.8907 44.8159 6.08387 45.6787C4.95914 46.8852 4.35062 48.4836 4.38822 50.1326C4.42582 51.7816 5.10657 53.3505 6.28512 54.5045C6.86363 55.0695 7.54926 55.5132 8.30171 55.8094C9.05415 56.1056 9.85822 56.2484 10.6666 56.2294C11.4751 56.2103 12.2715 56.0299 13.0092 55.6986C13.7469 55.3674 14.4109 54.8919 14.9622 54.3004L29.1168 62.6041C28.9485 63.1812 28.8631 63.7792 28.863 64.3804C28.866 67.8249 31.6135 70.6133 34.9997 70.6104C35.653 70.6104 36.2976 70.5024 36.9218 70.2954C40.1418 69.2133 41.8918 65.6812 40.8243 62.4029L54.8885 54.1429C55.5301 54.878 56.3391 55.4483 57.2472 55.8055C58.1552 56.1627 59.1359 56.2965 60.1065 56.1956C61.0771 56.0947 62.0092 55.762 62.8244 55.2256C63.6395 54.6892 64.3138 53.9647 64.7905 53.1133C65.091 52.5854 65.3185 52.0137 65.4555 51.4187C66.2401 48.0762 64.2101 44.722 60.926 43.9258V27.3037C61.4881 27.1648 62.0274 26.9457 62.5272 26.6533C63.9499 25.8119 64.9857 24.4461 65.4122 22.8492C65.8387 21.2523 65.6217 19.5519 64.808 18.1133C64.5155 17.6003 64.1511 17.1318 63.726 16.722C63.1452 16.1567 62.4572 15.7133 61.7025 15.4179C60.9477 15.1225 60.1415 14.9811 59.3313 15.002C58.5211 15.023 57.7233 15.2058 56.9848 15.5398C56.2464 15.8737 55.5822 16.3521 55.0314 16.9466L40.8797 8.6341C41.0489 8.05369 41.1393 7.4441 41.1364 6.83452C41.1335 3.39285 38.386 0.607437 34.9997 0.610354C34.4076 0.610354 33.8155 0.694937 33.2497 0.867021C30.0093 1.8441 28.1543 5.31202 29.1168 8.6166L14.9564 16.9291C14.5557 16.4963 14.0926 16.1257 13.5826 15.8295ZM39.538 60.1716C38.9676 59.5319 38.2684 59.0198 37.4863 58.669C36.7042 58.3181 35.8569 58.1364 34.9997 58.1358C33.2614 58.1358 31.6951 58.862 30.5839 60.0404L16.4205 51.722L16.4818 51.4799H53.5176C53.5497 51.6199 53.5847 51.757 53.6255 51.8941L39.538 60.1716ZM39.4039 11.192L53.5876 19.5279L53.5322 19.7379C52.7185 23.0804 54.7164 26.4608 58.0005 27.2862V43.9316C57.9247 43.952 57.8401 43.9724 57.7643 43.9987L39.2376 11.3612C39.2967 11.3085 39.3522 11.252 39.4039 11.192ZM33.2935 12.8429C34.4076 13.1695 35.5918 13.1695 36.7118 12.8429L55.2414 45.4687C54.3893 46.3003 53.7897 47.3559 53.5118 48.5137H16.4905C16.2119 47.3607 15.6158 46.3088 14.7697 45.4774L33.2935 12.8429ZM16.403 19.5074L30.5868 11.1891L30.7589 11.3641L12.238 43.9987L11.9959 43.9316V27.2833L12.2147 27.222C15.4668 26.2683 17.3422 22.8179 16.403 19.5074Z" fill="#DF34A6"/>
</g>
<defs>
<clipPath id="clip0_117_14936">
<rect width="70" height="70" fill="white" transform="translate(0 0.610352)"/>
</clipPath>
</defs>
</svg>
