<svg width="56" height="76" viewBox="0 0 56 76" fill="none" xmlns="http://www.w3.org/2000/svg">
<g clip-path="url(#clip0_117_14955)">
<path d="M55.8983 14.8125L50.8148 68.9039L27.9639 74.921L5.17595 68.9122L0.0976562 14.8125H55.8983Z" fill="#E44D26"/>
<path d="M27.998 70.3212L46.4627 65.459L50.8068 19.2354H27.998V70.3212Z" fill="#F16529"/>
<path d="M18.1149 32.5062H27.9972V25.8711H10.4805L10.6476 27.6511L12.3646 45.9358H27.9972V39.3007H18.7533L18.1149 32.5062ZM19.6893 49.2534H12.6768L13.6554 59.6716L27.965 63.4444L27.9972 63.4361V56.5328L27.9666 56.5405L20.1867 54.5452L19.6893 49.2534Z" fill="#EBEBEB"/>
<path d="M5.28906 0.110352H8.83908V3.44172H12.0866V0.110352H15.6368V10.1986H12.0868V6.82046H8.8393V10.1986H5.28928L5.28906 0.110352ZM20.305 3.45585H17.1802V0.110352H26.9825V3.45585H23.8557V10.1986H20.3057V3.45585H20.305ZM28.5381 0.110352H32.2397L34.5167 3.65509L36.7915 0.110352H40.4946V10.1986H36.959V5.1983L34.5167 8.78521H34.4554L32.0115 5.1983V10.1986H28.5381V0.110352ZM42.2613 0.110352H45.8124V6.86409H50.8048V10.1986H42.2611V0.110352H42.2613Z" fill="black"/>
<path d="M27.9729 45.9358H36.5749L35.7639 54.541L27.9727 56.5384V63.4413L42.2937 59.6716L42.3987 58.5505L44.0405 41.0824L44.2109 39.3007H27.9729V45.9358ZM27.9729 32.49V32.5062H44.8465L44.9865 31.0149L45.305 27.6511L45.4719 25.8711H27.9729V32.49Z" fill="white"/>
</g>
<defs>
<clipPath id="clip0_117_14955">
<rect width="56" height="75" fill="white" transform="translate(0 0.110352)"/>
</clipPath>
</defs>
</svg>
