<svg width="70" height="71" viewBox="0 0 70 71" fill="none" xmlns="http://www.w3.org/2000/svg">
<path d="M1.09375 1.15723V69.5166H69.4531V1.15723H1.09375ZM37.2526 59.4065C36.2436 61.4568 34.3175 62.8037 32.0857 63.4539C28.6562 64.2414 25.3761 63.7925 22.9359 62.3279C21.303 61.3261 20.0277 59.7839 19.162 58.0071L24.3682 54.8188C24.4136 54.8379 24.5503 55.0851 24.733 55.4045C25.3969 56.5168 25.9695 57.3043 27.0949 57.8572C28.2007 58.2346 30.6283 58.4757 31.5656 56.53C32.1382 55.5401 31.9561 52.3584 31.9561 48.8382C31.9555 43.3065 31.9812 37.7979 31.9812 32.3291H38.3846C38.3846 38.3447 38.4174 44.0421 38.3846 49.9122C38.3983 53.5107 38.7105 56.7186 37.2526 59.4065ZM63.8165 57.5975C61.5907 65.2111 49.181 65.4582 44.222 60.4281C43.1741 59.2441 42.5173 58.6256 41.8923 57.2589C44.5277 55.743 44.5277 55.743 47.092 54.2593C48.4848 56.4003 49.7727 57.5778 52.0898 58.0596C55.2333 58.4435 58.3959 57.3634 57.6866 54.0247C56.9576 51.298 51.2498 50.6346 47.3654 47.7187C43.4219 45.0702 42.4977 38.6346 45.7384 34.9574C46.8185 33.5973 48.6604 32.5823 50.593 32.0945L52.6099 31.8336C56.4823 31.7554 58.9028 32.7781 60.6796 34.7621C61.174 35.2631 61.5776 35.8034 62.3323 36.9743C60.2695 38.2889 60.276 38.2764 57.3213 40.1893C56.6902 38.8298 55.6429 37.9767 54.536 37.6059C52.8177 37.0853 50.651 37.6513 50.2015 39.4669C50.0456 40.0264 50.0779 40.547 50.3256 41.4712C51.0218 43.0588 53.358 43.7489 55.4537 44.712C61.4863 47.1587 63.5234 49.7821 64.0243 52.9047C64.5066 55.5932 63.9078 57.3372 63.8165 57.5975Z" fill="#F0DB4F"/>
</svg>
