<svg width="117" height="28" viewBox="0 0 117 28" fill="none" xmlns="http://www.w3.org/2000/svg">
<path fill-rule="evenodd" clip-rule="evenodd" d="M111.252 2.76172L116.128 2.78856C116.128 2.78856 107.063 15.0653 106.322 16.0658C106.082 16.3897 105.717 16.7392 105.532 17.1723C105.063 18.2611 104.583 20.6496 104.583 20.6496L100.121 20.6719C100.121 20.6719 100.815 18.1822 100.787 16.8561C100.762 15.6977 100.17 14.5406 99.8379 13.3788C99.5024 12.2026 99.0469 9.90128 99.0469 9.90128H103.634L104.266 12.4304L111.252 2.76172Z" fill="#1A1918"/>
<path fill-rule="evenodd" clip-rule="evenodd" d="M102.02 5.35089C102.92 5.89302 103.472 8.8837 103.472 8.8837C103.472 8.8837 98.7634 8.95309 96.2011 8.95309H93.9869L91.298 20.6497H87.186C87.186 20.6497 89.7451 7.93845 90.3492 5.6339C90.545 4.88771 91.6905 5.01579 93.6247 5.01579H96.7135C98.708 5.01579 101.039 4.76122 102.02 5.35089ZM82.8762 11.0474C82.8762 11.0474 83.0043 10.2967 82.4414 9.42719C81.9604 8.68601 81.5163 8.51356 80.2509 8.47398C76.6781 8.36182 76.7475 11.0078 76.7475 11.0078L82.8762 11.0474ZM86.751 8.01716C87.2746 9.90471 86.2766 14.3398 86.2766 14.3398C86.2766 14.3398 81.0651 14.2529 78.2106 14.3398C77.323 14.3669 76.2606 14.2433 75.9963 14.656C75.6246 15.2343 76.1322 16.1245 76.5625 16.5006C77.0576 16.9335 78.0221 16.9828 78.3688 17.0268C80.6856 17.3209 85.5347 17.1027 85.5347 17.1027L84.6948 20.8201C84.6948 20.8201 77.8422 21.1636 74.4147 20.3459C73.738 20.1849 73.1035 19.8593 72.6749 19.3977C72.5579 19.2715 72.4564 19.0993 72.3457 18.9505C72.2574 18.8317 71.9997 18.4416 71.8841 18.1331C71.1013 16.0483 71.9758 12.0543 72.8331 9.91404C72.9326 9.66607 73.0576 9.35144 73.1891 9.08413C73.3535 8.75084 73.4926 8.37456 73.6239 8.17527C73.7122 8.03787 73.8217 7.94937 73.9135 7.8197C74.0193 7.66636 74.1425 7.51781 74.2565 7.38518C74.5729 7.01845 74.9319 6.7591 75.3638 6.43696C76.7917 5.36818 79.3761 4.5385 82.4808 4.85608C83.6497 4.9762 85.415 5.39343 86.2766 6.59485C86.5074 6.91562 86.6215 7.55239 86.751 8.01716ZM67.8907 5.00123L71.878 4.97779C71.878 4.97779 69.6558 15.5125 68.5233 20.6497H63.9364C60.7309 20.6497 57.8761 21.0464 56.6614 18.7528C55.4832 16.5258 56.6077 12.8635 57.1358 10.3754C57.5091 8.61457 58.2954 5.01556 58.2954 5.01556L62.4265 4.97779C62.4265 4.97779 61.2592 10.5811 60.7734 13.3788C60.5995 14.381 60.2408 15.3246 60.6155 16.0656C60.9712 16.7708 61.4695 16.8213 62.9876 16.8561C63.4686 16.8675 65.0439 16.8561 65.0439 16.8561L67.8907 5.00123ZM49.228 12.5883C49.6454 11.1059 50.2544 9.4984 50.177 8.16254C50.0932 6.73385 48.8945 5.43302 48.121 5.15957C45.7913 4.33762 43.6104 5.48671 42.7435 6.424C41.6222 7.63793 41.2425 9.05592 40.8455 11.0081C40.55 12.4572 40.3078 13.9872 40.8455 15.1174C41.7975 17.1155 44.7663 16.6791 47.9628 16.6982C48.4372 15.4274 48.8294 14.0001 49.228 12.5883ZM54.7636 6.74022C55.2189 10.0499 53.4716 13.703 52.2678 16.8798C53.4952 16.9906 54.5708 16.8627 54.6482 16.9542C54.7288 17.0727 53.8255 20.7461 53.5107 20.7557C52.5366 20.7809 49.3088 20.8078 47.9628 20.8078C43.5705 20.8078 39.4617 21.0937 37.3663 18.9111C36.5154 18.0243 35.927 16.5035 35.7845 15.4336C35.5473 13.6475 35.8446 11.681 36.2591 10.0596C36.634 8.59569 37.1145 7.21432 37.8407 5.94967C39.6864 2.73012 42.897 0.340254 48.2789 0.891936C49.3229 0.999315 50.8221 1.45613 51.7586 1.99826C51.8232 2.03625 52.0497 2.21643 52.1016 2.24805C53.3671 3.05271 54.52 4.97302 54.7636 6.74022ZM35.3306 5.02034C35.0649 6.22949 34.7993 7.60016 34.5193 8.79498H30.0908C30.4339 7.47049 30.6966 6.15373 31.0399 5.00145C32.4569 5.00145 33.7744 5.02034 35.3308 5.02034M29.9326 9.90153H34.2031C33.6447 12.99 32.5391 17.972 31.6725 21.44C31.13 23.6103 30.7678 25.1939 29.3 26.3398C29.1687 26.4427 29.0929 26.3937 28.9836 26.4979C28.7132 26.7557 27.4621 27.0546 26.7696 27.1302C25.6435 27.2521 24.3704 27.1461 22.9863 27.1176C23.3485 25.7947 23.7582 24.2061 24.081 23.0204C27.4546 23.4285 27.54 20.2418 28.193 17.1724C28.5709 15.3988 29.7162 10.6127 29.9326 9.90153Z" fill="#1A1918"/>
<path fill-rule="evenodd" clip-rule="evenodd" d="M19.9699 17.9619L19.8784 18.199C18.3191 21.2338 15.5558 23.0957 11.6145 23.1778C9.77201 23.2158 8.01648 22.7433 6.86965 22.2296C4.3948 21.1182 2.31307 19.0573 1.17625 16.8554C-0.454529 13.6989 -0.748634 9.30793 2.64223 6.02832C2.69459 6.02832 2.23089 6.73948 2.28325 6.73948L2.18992 7.04296C-0.253526 14.6882 7.27462 21.2402 14.5927 20.4908C16.3514 20.3106 18.594 19.3481 19.9699 17.9619Z" fill="#21609B"/>
<path fill-rule="evenodd" clip-rule="evenodd" d="M15.5418 14.8004C17.3829 14.813 19.306 13.953 20.4449 12.7457C19.4485 15.2732 16.5637 16.8977 12.6952 16.3811C9.45597 15.9479 6.37036 12.6904 6.05258 9.42627C5.82017 7.05073 6.64853 5.63297 8.01366 3.91309C7.53927 4.81261 7.36194 5.50625 7.31778 5.94874C6.79923 11.0875 11.4252 14.7734 15.5418 14.8004Z" fill="#21609B"/>
<path fill-rule="evenodd" clip-rule="evenodd" d="M20.2591 8.41808C19.9729 9.07418 18.3251 10.3131 17.5973 10.4681C14.7157 11.0816 12.8702 9.71596 11.9035 8.16192C11.7598 7.92987 11.4942 7.29606 11.4466 7.13477C11.0717 5.86078 11.244 3.93387 12.3624 2.93652C12.0255 3.88496 11.9763 4.98651 12.1536 5.70267C12.2611 6.1356 12.5884 6.89157 12.916 7.36704C13.5119 8.23313 13.8901 8.44356 14.6556 8.90356C15.0005 9.11058 15.3704 9.27666 15.5302 9.32216C16.2561 9.53578 17.7885 10.0984 20.2591 8.41808Z" fill="#21609B"/>
</svg>
