<svg width="78" height="34" viewBox="0 0 78 34" fill="none" xmlns="http://www.w3.org/2000/svg">
<g clip-path="url(#clip0_117_14975)">
<path d="M72.3795 27.4278C72.3795 31.0022 69.4661 33.9265 65.9053 33.9265H11.4879C7.92705 33.9265 5.01367 31.0022 5.01367 27.4278V6.73204C5.01367 3.15802 7.92705 0.233398 11.4879 0.233398H65.9053C69.4661 0.233398 72.3795 3.15802 72.3795 6.73204V27.4278Z" fill="url(#paint0_linear_117_14975)"/>
<mask id="mask0_117_14975" style="mask-type:luminance" maskUnits="userSpaceOnUse" x="0" y="0" width="78" height="34">
<path d="M0.154297 0.15332H77.1206V34H0.154297" fill="white"/>
</mask>
<g mask="url(#mask0_117_14975)">
<path fill-rule="evenodd" clip-rule="evenodd" d="M73.8338 12.4966C73.8338 9.96294 74.213 8.46879 74.213 5.74045C74.213 1.51765 72.6959 0.15332 69.3461 0.15332H66.8811V3.14161H67.6396C69.3462 3.14161 69.7254 3.72641 69.7254 5.87027C69.7254 7.88399 69.5356 9.89803 69.5356 12.2369C69.5356 15.2252 70.4838 16.3945 72.3798 16.8492V17.0442C70.4838 17.4989 69.5356 18.6685 69.5356 21.6568C69.5356 23.9954 69.7254 25.8796 69.7254 28.0234C69.7254 30.2322 69.283 30.8167 67.6396 30.8167V30.8816H66.8811V34H69.3461C72.6959 34 74.213 32.6357 74.213 28.4132C74.213 25.6196 73.8338 24.1904 73.8338 21.6568C73.8338 20.2924 74.6554 18.8632 77.1204 18.7334V15.355C74.6554 15.2901 73.8338 13.8609 73.8338 12.4966ZM45.8338 16.4594C43.8743 15.6799 42.1045 15.2252 42.1045 13.9258C42.1045 12.9515 42.8629 12.3667 44.2535 12.3667C45.644 12.3667 46.9082 12.9515 48.2988 13.991L50.8269 10.5477C49.2466 9.31354 47.0977 8.01412 44.1903 8.01412C39.8924 8.01412 36.9848 10.5477 36.9848 14.1208C36.9848 17.3042 39.7027 18.9281 41.9782 19.8378C43.9374 20.6173 45.8338 21.267 45.8338 22.5661C45.8338 23.5407 45.075 24.1904 43.3688 24.1904C41.7885 24.1904 40.2085 23.5407 38.5019 22.1764L36.0369 25.9445C37.9329 27.5684 40.8403 28.6728 43.2422 28.6728C48.2988 28.6728 51.0164 25.9445 51.0164 22.3714C51.0164 18.7983 48.2988 17.3042 45.8338 16.4594ZM61.1293 16.4594C59.2332 15.6799 57.4635 15.2252 57.4635 13.9258C57.4635 12.9515 58.2219 12.3667 59.6124 12.3667C61.003 12.3667 62.2672 12.9515 63.6577 13.991L66.1859 10.5477C64.6056 9.31354 62.4567 8.01412 59.5493 8.01412C55.2511 8.01412 52.3437 10.5477 52.3437 14.1208C52.3437 17.3042 55.0616 18.9281 57.3369 19.8378C59.2964 20.6173 61.1924 21.267 61.1924 22.5661C61.1924 23.5407 60.434 24.1904 58.7274 24.1904C57.1474 24.1904 55.5672 23.5407 53.8609 22.1764L51.3324 25.9445C53.2288 27.5684 56.1361 28.6728 58.538 28.6728C63.5943 28.6728 66.3122 25.9445 66.3122 22.3714C66.3122 18.7983 63.5943 17.3042 61.1293 16.4594ZM23.5853 16.1346C23.9645 13.536 25.4813 12.3018 27.2511 12.3018C29.5266 12.3018 30.4116 13.9258 30.4116 16.1346H23.5853ZM35.215 17.3042C35.2782 12.0419 32.4971 7.94921 27.1879 7.94921C22.574 7.94921 18.1498 11.9121 18.2761 18.1486C18.2761 24.5802 22.3845 28.348 27.82 28.348C30.0956 28.348 32.6237 27.5035 34.5829 26.1392L32.6869 22.6962C31.2964 23.5407 29.969 23.9304 28.5784 23.9304C26.0503 23.9304 24.0908 22.6962 23.5853 19.7076H35.0256C35.0887 19.253 35.215 18.3436 35.215 17.3042Z" fill="#FAF9F8"/>
</g>
<mask id="mask1_117_14975" style="mask-type:luminance" maskUnits="userSpaceOnUse" x="0" y="0" width="78" height="34">
<path d="M0.154297 0.15332H77.1206V34H0.154297" fill="white"/>
</mask>
<g mask="url(#mask1_117_14975)">
<path fill-rule="evenodd" clip-rule="evenodd" d="M17.9607 23.8006C17.5183 23.8006 16.9494 23.4109 16.9494 22.1764V0.15332H7.97408C4.56121 0.15332 3.04408 1.51765 3.04408 5.74045C3.04408 8.5337 3.42329 10.0931 3.42329 12.4966C3.42329 13.8609 2.60172 15.2901 0.136719 15.4199V18.7983C2.60172 18.8632 3.42329 20.2924 3.42329 21.6568C3.42329 24.0606 3.04408 25.4895 3.04408 28.2831C3.04408 32.5059 4.56121 33.8702 7.91093 33.8702H10.3759V30.8816H9.61752C8.03754 30.8816 7.53172 30.2322 7.53172 28.0883C7.53172 25.9445 7.72148 24.1255 7.72148 21.7217C7.72148 18.7334 6.77331 17.5638 4.87697 17.1091V16.9144C6.77331 16.4594 7.72148 15.2901 7.72148 12.3018C7.72148 9.96294 7.53172 8.07903 7.53172 5.93517C7.53172 3.79132 7.97408 3.20683 9.61752 3.20683H11.3241V21.8515C11.3241 25.8144 12.6515 28.4132 16.507 28.4132C17.7078 28.4132 18.656 28.2182 19.3512 27.9582L18.7191 23.7357C18.3399 23.8006 18.1504 23.8006 17.9607 23.8006Z" fill="#FAF9F8"/>
</g>
</g>
<defs>
<linearGradient id="paint0_linear_117_14975" x1="3373.3" y1="0.233398" x2="3373.3" y2="3369.54" gradientUnits="userSpaceOnUse">
<stop stop-color="#2E4F82"/>
<stop offset="1" stop-color="#182E4D"/>
</linearGradient>
<clipPath id="clip0_117_14975">
<rect width="77" height="34" fill="white" transform="translate(0.128906)"/>
</clipPath>
</defs>
</svg>
