<svg width="70" height="71" viewBox="0 0 70 71" fill="none" xmlns="http://www.w3.org/2000/svg">
<g clip-path="url(#clip0_117_14928)">
<path d="M21 21.6104L22.8916 20.2442C22.299 19.4237 21.2451 19.0788 20.2821 19.3902C19.3191 19.7016 18.6667 20.5983 18.6667 21.6104H21ZM35 65.9437C18.2474 65.9437 4.66667 52.3632 4.66667 35.6104H0C0 54.9401 15.67 70.6104 35 70.6104V65.9437ZM65.3333 35.6104C65.3333 52.3632 51.7529 65.9437 35 65.9437V70.6104C54.3298 70.6104 70 54.9401 70 35.6104H65.3333ZM35 5.27702C51.7529 5.27702 65.3333 18.8577 65.3333 35.6104H70C70 16.2804 54.3298 0.610352 35 0.610352V5.27702ZM35 0.610352C15.67 0.610352 0 16.2804 0 35.6104H4.66667C4.66667 18.8577 18.2474 5.27702 35 5.27702V0.610352ZM23.3333 56.6104V21.6104H18.6667V56.6104H23.3333ZM19.1084 22.9765L49.4419 64.9763L53.2247 62.2444L22.8916 20.2442L19.1084 22.9765ZM46.6667 19.277V47.277H51.3333V19.277H46.6667Z" fill="black"/>
</g>
<defs>
<clipPath id="clip0_117_14928">
<rect width="70" height="70" fill="white" transform="translate(0 0.610352)"/>
</clipPath>
</defs>
</svg>
