<svg width="77" height="42" viewBox="0 0 77 42" fill="none" xmlns="http://www.w3.org/2000/svg">
<g clip-path="url(#clip0_117_14895)">
<path d="M38.5 41.2609C59.763 41.2609 77 32.1363 77 20.8805C77 9.62464 59.763 0.5 38.5 0.5C17.237 0.5 0 9.62464 0 20.8805C0 32.1363 17.237 41.2609 38.5 41.2609Z" fill="#8993BE"/>
<path fill-rule="evenodd" clip-rule="evenodd" d="M10.8125 32.9483L15.0319 11.2269H24.7883C29.0074 11.4951 31.117 13.6402 31.117 17.3948C31.117 23.8308 26.1069 27.5851 21.6238 27.3168H16.8778L15.8229 32.9483H10.8125ZM17.9323 23.2946L19.2509 15.2494H22.6789C24.5248 15.2494 25.8431 16.0539 25.8431 17.6628C25.5797 22.2219 23.47 23.0263 21.0968 23.2946H17.9323ZM30.1368 27.3168L34.3559 5.5957H39.3663L38.3114 11.2269H43.0578C47.2771 11.4951 48.8592 13.6402 48.3319 16.3221L46.4861 27.3168H41.2122L43.0581 17.3948C43.3215 16.0539 43.3215 15.2494 41.4759 15.2494H37.5204L35.1472 27.3168H30.1368ZM46.1483 32.9483L50.3673 11.2269H60.1241C64.3434 11.4951 66.4531 13.6402 66.4531 17.3948C66.4531 23.8308 61.4427 27.5851 56.9599 27.3168H52.2132L51.1584 32.9483H46.1483ZM53.2678 23.2946L54.5864 15.2494H58.0147C59.8606 15.2494 61.1789 16.0539 61.1789 17.6628C60.9154 22.2219 58.8058 23.0263 56.4326 23.2946H53.2681H53.2678Z" fill="#232531"/>
</g>
<defs>
<clipPath id="clip0_117_14895">
<rect width="77" height="41" fill="white" transform="translate(0 0.5)"/>
</clipPath>
</defs>
</svg>
