<svg width="70" height="71" viewBox="0 0 70 71" fill="none" xmlns="http://www.w3.org/2000/svg">
<path d="M35 41.8447C38.4432 41.8447 41.2344 39.0535 41.2344 35.6104C41.2344 32.1672 38.4432 29.376 35 29.376C31.5569 29.376 28.7656 32.1672 28.7656 35.6104C28.7656 39.0535 31.5569 41.8447 35 41.8447Z" fill="#61DAFB"/>
<path d="M58.6797 25.3291C57.4766 24.8916 56.2188 24.4541 54.9062 24.0713C55.2344 22.7588 55.5078 21.4463 55.7266 20.1885C56.875 12.9697 55.6172 7.88379 52.1172 5.91504C51.0781 5.31348 49.9297 5.04004 48.6172 5.04004C44.7891 5.04004 39.9219 7.88379 35 12.6416C30.0781 7.88379 25.2109 5.04004 21.3828 5.04004C20.0703 5.04004 18.9219 5.31348 17.8828 5.91504C14.3828 7.93848 13.125 13.0244 14.2734 20.1885C14.4922 21.4463 14.7656 22.7588 15.0938 24.0713C13.7812 24.4541 12.5234 24.8369 11.3203 25.3291C4.48438 27.9541 0.765625 31.5635 0.765625 35.6104C0.765625 39.6572 4.53906 43.2666 11.3203 45.8916C12.5234 46.3291 13.7812 46.7666 15.0938 47.1494C14.7656 48.4619 14.4922 49.7744 14.2734 51.0322C13.125 58.251 14.3828 63.3369 17.8828 65.3057C18.9219 65.9072 20.0703 66.1807 21.3828 66.1807C25.2656 66.1807 30.1328 63.3369 35 58.5791C39.9219 63.3369 44.7891 66.1807 48.6172 66.1807C49.9297 66.1807 51.0781 65.9072 52.1172 65.3057C55.6172 63.2822 56.875 58.1963 55.7266 51.0322C55.5078 49.7744 55.2344 48.4619 54.9062 47.1494C56.2188 46.7666 57.4766 46.3838 58.6797 45.8916C65.5156 43.2666 69.2344 39.6572 69.2344 35.6104C69.2344 31.5635 65.5156 27.9541 58.6797 25.3291ZM50.5859 8.64941C52.8281 9.96191 53.5938 14.0088 52.6641 19.751C52.5 20.8994 52.2266 22.1025 51.8984 23.3604C49.0547 22.7041 46.0469 22.2666 42.875 21.9932C41.0156 19.3682 39.1016 17.0166 37.1875 14.8838C41.2344 10.8916 45.3359 8.15723 48.6719 8.15723C49.3828 8.15723 50.0391 8.32129 50.5859 8.64941ZM44.4609 41.0791C43.4766 42.8291 42.3281 44.5791 41.125 46.3291C39.1016 46.4932 37.0781 46.5479 35 46.5479C32.8672 46.5479 30.8437 46.4932 28.875 46.3291C27.6719 44.5791 26.5781 42.8291 25.5937 41.0791C24.5547 39.2744 23.5703 37.415 22.6953 35.6104C23.5703 33.8057 24.5547 31.9463 25.5937 30.1416C26.5781 28.3916 27.7266 26.6416 28.9297 24.8916C30.9531 24.7275 32.9766 24.6729 35.0547 24.6729C37.1875 24.6729 39.2109 24.7275 41.1797 24.8916C42.3828 26.6416 43.4766 28.3916 44.4609 30.1416C45.5 31.9463 46.4844 33.8057 47.3594 35.6104C46.4297 37.415 45.5 39.2197 44.4609 41.0791ZM49 39.2744C49.8203 41.1885 50.4766 43.0479 51.0781 44.9072C49.2188 45.3447 47.25 45.6729 45.1719 45.9463C45.8281 44.9072 46.5391 43.8135 47.1406 42.665C47.7969 41.5166 48.3984 40.3682 49 39.2744ZM35 54.0947C33.6875 52.6729 32.4297 51.1416 31.2266 49.5557C32.4844 49.6104 33.7422 49.665 35 49.665C36.2578 49.665 37.5156 49.6104 38.7734 49.5557C37.5703 51.1416 36.3125 52.6729 35 54.0947ZM24.8281 45.8916C22.75 45.6182 20.7812 45.29 18.9219 44.8525C19.5234 43.0479 20.1797 41.1338 21 39.2197C21.6016 40.3135 22.2031 41.4619 22.8594 42.5557C23.5156 43.7588 24.1719 44.7979 24.8281 45.8916ZM21 31.9463C20.1797 30.0322 19.5234 28.1729 18.9219 26.3135C20.7812 25.876 22.75 25.5479 24.8281 25.2744C24.1719 26.3135 23.4609 27.4072 22.8594 28.5557C22.2031 29.7041 21.6016 30.8525 21 31.9463ZM35 17.126C36.3125 18.5479 37.5703 20.0791 38.7734 21.665C37.5156 21.6104 36.2578 21.5557 35 21.5557C33.7422 21.5557 32.4844 21.6104 31.2266 21.665C32.4297 20.0791 33.6875 18.5479 35 17.126ZM47.1406 28.6104L45.1719 25.3291C47.25 25.6025 49.2188 25.9307 51.0781 26.3682C50.4766 28.1729 49.8203 30.0869 49 32.001C48.3984 30.8525 47.7969 29.7041 47.1406 28.6104ZM17.3359 19.751C16.4063 14.0088 17.1719 9.96191 19.4141 8.64941C19.9609 8.32129 20.6172 8.15723 21.3281 8.15723C24.6094 8.15723 28.7109 10.8369 32.8125 14.8838C30.8984 16.9619 28.9844 19.3682 27.125 21.9932C23.9531 22.2666 20.9453 22.7588 18.1016 23.3604C17.7734 22.1025 17.5547 20.8994 17.3359 19.751ZM3.82812 35.6104C3.82812 33.04 6.94531 30.3057 12.4141 28.2822C13.5078 27.8447 14.7109 27.4619 15.9141 27.1338C16.7891 29.8682 17.8828 32.7666 19.1953 35.665C17.8828 38.5635 16.7344 41.4072 15.9141 44.1416C8.36719 41.9541 3.82812 38.6729 3.82812 35.6104ZM19.4141 62.5713C17.1719 61.2588 16.4063 57.2119 17.3359 51.4697C17.5 50.3213 17.7734 49.1182 18.1016 47.8604C20.9453 48.5166 23.9531 48.9541 27.125 49.2275C28.9844 51.8525 30.8984 54.2041 32.8125 56.3369C28.7656 60.3291 24.6641 63.0635 21.3281 63.0635C20.6172 63.0635 19.9609 62.8994 19.4141 62.5713ZM52.6641 51.4697C53.5938 57.2119 52.8281 61.2588 50.5859 62.5713C50.0391 62.8994 49.3828 63.0635 48.6719 63.0635C45.3906 63.0635 41.2891 60.3838 37.1875 56.3369C39.1016 54.2588 41.0156 51.8525 42.875 49.2275C46.0469 48.9541 49.0547 48.4619 51.8984 47.8604C52.2266 49.1182 52.4453 50.3213 52.6641 51.4697ZM57.5859 42.9385C56.4922 43.376 55.2891 43.7588 54.0859 44.0869C53.2109 41.3525 52.1172 38.4541 50.8047 35.5557C52.1172 32.6572 53.2656 29.8135 54.0859 27.0791C61.6328 29.2666 66.1719 32.5479 66.1719 35.6104C66.1719 38.1807 63 40.915 57.5859 42.9385Z" fill="#61DAFB"/>
</svg>
