<svg width="78" height="58" viewBox="0 0 78 58" fill="none" xmlns="http://www.w3.org/2000/svg">
<g clip-path="url(#clip0_117_14973)">
<path d="M66.3908 33.3196C63.6988 33.3348 61.3678 33.9842 59.4127 34.951C58.6908 33.5161 57.969 32.2623 57.8488 31.326C57.7134 30.2385 57.548 29.5737 57.7134 28.2749C57.8787 26.9758 58.6307 25.1331 58.6307 24.9821C58.6155 24.8461 58.4651 24.1816 56.9162 24.1665C55.3674 24.1514 54.0287 24.4685 53.8783 24.8764C53.7279 25.2842 53.4272 26.2206 53.2317 27.1873C52.961 28.6071 50.1336 33.6368 48.5244 36.28C47.9981 35.2529 47.5469 34.3467 47.4565 33.6215C47.3213 32.5342 47.1557 31.8694 47.3213 30.5706C47.4867 29.2715 48.2387 27.429 48.2387 27.2779C48.2236 27.142 48.0733 26.4774 46.5244 26.4623C44.9752 26.4472 43.6369 26.7644 43.4865 27.1722C43.3361 27.58 43.1707 28.5467 42.8398 29.4831C42.5238 30.4196 38.7641 38.8175 37.7865 41.0076C37.2902 42.1253 36.8543 43.0165 36.5383 43.6206C36.2225 44.2248 36.5233 43.6659 36.4932 43.7264C36.2225 44.2399 36.0721 44.5269 36.0721 44.5269V44.5421C35.8615 44.9197 35.636 45.2821 35.5305 45.2821C35.4553 45.2821 35.3049 44.2701 35.5606 42.8807C36.1171 39.9654 37.4706 35.4192 37.4557 35.2531C37.4557 35.1775 37.7112 34.3769 36.5833 33.9692C35.4854 33.5614 35.0945 34.2411 35.0042 34.2411C34.9139 34.2411 34.8387 34.4828 34.8387 34.4828C34.8387 34.4828 36.0569 29.3626 32.5077 29.3626C30.2819 29.3626 27.2139 31.7944 25.695 34.0147C24.7325 34.5433 22.6872 35.6609 20.5215 36.8543C19.6944 37.3074 18.8372 37.7907 18.0251 38.2287L17.8598 38.0472C13.5586 33.4404 5.60294 30.1779 5.9338 23.9852C6.05411 21.7347 6.83615 15.7987 21.2136 8.60917C32.9892 2.71854 42.4187 4.33469 44.0578 7.92948C46.3889 13.0649 39.0197 22.6107 26.7781 23.9852C22.116 24.5139 19.6645 22.7014 19.048 22.0217C18.4013 21.3118 18.3111 21.2816 18.0705 21.4175C17.6795 21.629 17.9201 22.2633 18.0705 22.6409C18.4314 23.5925 19.9353 25.2842 22.492 26.13C24.7326 26.8701 30.207 27.2779 36.8242 24.7102C44.2384 21.8253 50.0285 13.8201 48.3291 7.12896C46.5996 0.316979 35.3504 -1.91844 24.7177 1.87271C18.3861 4.13833 11.5283 7.67271 6.59552 12.3097C0.730286 17.8076 -0.202136 22.6107 0.188879 24.6045C1.55758 31.7185 11.3178 36.3555 15.2279 39.7842C15.0324 39.8897 14.852 39.9955 14.6865 40.0863C12.7315 41.0528 5.28712 44.9649 3.42228 49.1033C1.31681 53.7856 3.75314 57.154 5.37736 57.6071C10.4004 59.0118 15.5438 56.4894 18.326 52.3357C21.093 48.1821 20.7623 42.7899 19.484 40.3279L19.4387 40.2373L20.9727 39.331C21.9654 38.742 22.943 38.1982 23.8001 37.7298C23.319 39.0439 22.9729 40.5996 22.7926 42.8653C22.582 45.5238 23.6649 48.9674 25.0936 50.3267C25.7252 50.9156 26.4772 50.9309 26.9434 50.9309C28.5977 50.9309 29.3496 49.5563 30.1768 47.9101C31.1994 45.9012 32.1018 43.5752 32.1018 43.5752C32.1018 43.5752 30.9738 49.8736 34.0569 49.8736C35.1848 49.8736 36.3127 48.4085 36.824 47.6533V47.6684C36.824 47.6684 36.8541 47.6231 36.9143 47.5173C36.9774 47.4236 37.0376 47.328 37.0947 47.2305V47.2003C37.5459 46.4149 38.5535 44.6175 40.0574 41.642C41.9973 37.8055 43.8623 33.0024 43.8623 33.0024C43.8623 33.0024 44.0428 34.1805 44.5992 36.1139C44.9299 37.2619 45.6518 38.5154 46.2083 39.7389C45.7571 40.3732 45.4864 40.7359 45.4864 40.7359L45.5014 40.751C45.1406 41.2343 44.7344 41.748 44.3135 42.2614C42.7795 44.1041 40.9447 46.2037 40.7041 46.8079C40.4184 47.5177 40.4785 48.0463 41.035 48.4694C41.441 48.7715 42.1629 48.8317 42.9299 48.7715C44.3135 48.6807 45.276 48.3334 45.7572 48.1218C46.5092 47.8499 47.3664 47.4421 48.1936 46.838C49.6975 45.7204 50.6149 44.1345 50.5246 42.0199C50.4795 40.8569 50.1035 39.7089 49.6373 38.6214C49.7727 38.4251 49.9082 38.2286 50.0434 38.0173C52.4195 34.5281 54.2543 30.6918 54.2543 30.6918C54.2543 30.6918 54.4348 31.8699 54.9912 33.8032C55.2768 34.785 55.8485 35.8575 56.3598 36.9148C54.134 38.7424 52.7354 40.857 52.2541 42.2466C51.3668 44.8143 52.0586 45.9773 53.367 46.2492C53.9534 46.37 54.7957 46.0982 55.4272 45.8263C56.2092 45.5695 57.1567 45.1313 58.0291 44.482C59.533 43.3643 60.9768 41.8086 60.9016 39.7091C60.8565 38.7424 60.6008 37.7909 60.2549 36.8846C62.1498 36.0992 64.601 35.6461 67.7143 36.0237C74.4067 36.8091 75.7301 41.0081 75.4746 42.7601C75.2189 44.5124 73.8203 45.4789 73.3539 45.781C72.8877 46.068 72.7373 46.1738 72.7824 46.3851C72.8426 46.7025 73.0531 46.6872 73.4592 46.627C74.0156 46.5362 76.9783 45.1921 77.0986 41.9599C77.2791 37.8057 73.3539 33.2744 66.3908 33.3196ZM14.7768 50.7951C12.566 53.2269 9.45294 54.1482 8.12951 53.3628C6.70079 52.5321 7.25709 48.9524 9.97931 46.3696C11.6336 44.7988 13.7842 43.3488 15.1979 42.4576C15.5137 42.2613 15.9949 41.9744 16.5664 41.6269C16.6567 41.5666 16.7168 41.5363 16.7168 41.5363C16.8221 41.4758 16.9424 41.4003 17.0627 41.3248C18.0703 45.0102 17.1078 48.2425 14.7768 50.7951ZM30.9438 39.754C30.1768 41.642 28.5526 46.4904 27.575 46.2185C26.7327 45.992 26.2215 42.3217 27.4094 38.6967C28.011 36.8689 29.2893 34.6941 30.0413 33.8481C31.2596 32.4887 32.5829 32.0356 32.9139 32.5944C33.3049 33.3196 31.425 38.5758 30.9438 39.754ZM44.2834 46.1581C43.9526 46.3244 43.6518 46.4451 43.5164 46.3546C43.4111 46.2942 43.6516 46.0677 43.6516 46.0677C43.6516 46.0677 45.321 44.2703 45.9827 43.4395C46.3587 42.9563 46.8098 42.3975 47.2911 41.763V41.9442C47.2912 44.1191 45.2158 45.5691 44.2834 46.1581ZM54.57 43.8019C54.3294 43.6206 54.3596 43.0618 55.1715 41.3097C55.4875 40.6149 56.2092 39.4519 57.4575 38.3493C57.6079 38.8024 57.6983 39.2403 57.6831 39.6482C57.6682 42.367 55.7432 43.379 54.57 43.8019Z" fill="#CF649A"/>
</g>
<defs>
<clipPath id="clip0_117_14973">
<rect width="77" height="58" fill="white" transform="translate(0.128906)"/>
</clipPath>
</defs>
</svg>
