<svg width="116" height="40" viewBox="0 0 116 40" fill="none" xmlns="http://www.w3.org/2000/svg">
<g clip-path="url(#clip0_117_15115)">
<path d="M114.768 29.6827L112.065 30.0447C112.065 30.0447 111.884 28.9587 110.983 28.2348C110.082 27.5108 107.018 27.6918 107.018 29.5017C107.018 31.1306 108.279 30.9496 110.803 31.4926C113.146 32.0356 115.129 32.7596 115.129 36.0174C115.129 37.8274 113.867 39.9993 109.902 39.9993C103.413 39.9993 103.953 35.1125 103.953 35.1125H106.837C106.837 35.1125 107.018 36.7414 108.099 37.1034C109.361 37.6464 111.524 37.4654 111.884 36.3794C112.245 35.2935 112.245 34.0265 108.82 33.6645C105.395 33.1216 103.953 31.6736 103.953 29.3207C104.134 27.1488 105.395 25.3389 109.902 25.3389C114.408 25.5199 114.768 29.6827 114.768 29.6827ZM102.331 29.6827L99.6273 30.0447C99.6273 30.0447 99.4471 28.9587 98.5458 28.2348C97.6446 27.5108 94.5803 27.6918 94.5803 29.5017C94.5803 31.1306 95.8421 30.9496 98.3656 31.4926C100.709 32.0356 102.692 32.7596 102.692 36.0174C102.692 37.8274 101.43 39.9993 97.4643 39.9993C90.9753 39.9993 91.5161 35.1125 91.5161 35.1125H94.5803C94.5803 35.1125 94.7606 36.7414 95.8421 37.1034C97.1038 37.6464 99.2668 37.4654 99.6273 36.3794C99.9878 35.2935 99.9878 34.0265 96.5631 33.6645C93.4988 33.3026 91.8766 32.0356 91.8766 30.0447V29.3207C92.0568 27.1488 93.3186 25.3389 97.6446 25.3389C101.79 25.5199 102.331 29.6827 102.331 29.6827ZM87.0098 34.7505H90.0741V34.9315C89.8938 36.0174 89.353 39.8183 84.1258 39.8183C79.4392 39.8183 77.817 36.1984 77.817 32.3976C77.817 28.4157 80.1603 25.5199 84.4863 25.5199C89.353 25.5199 89.7135 30.2257 89.7135 30.2257L86.8295 30.5877C86.8295 30.5877 86.6493 28.0538 84.1258 28.0538C81.6023 28.0538 80.701 30.0447 80.701 32.3976C80.701 34.7505 81.422 37.4654 83.9455 37.4654C86.469 37.4654 87.0098 34.7505 87.0098 34.7505ZM71.6885 25.8818V39.6373H69.165V38.3704C69.165 38.3704 68.2637 39.9993 66.1007 39.9993C63.7574 39.9993 62.1352 38.9133 61.9549 34.7505C61.9549 30.4067 64.6587 29.3207 66.4612 29.3207C68.0835 29.3207 69.165 30.5877 69.165 30.5877V25.8818H71.6885ZM69.165 34.5695C69.165 33.1216 68.9847 31.4926 66.8217 31.4926C64.6587 31.4926 64.6587 34.0265 64.6587 34.7505C64.6587 35.6555 64.8389 37.6464 66.8217 37.6464C68.8045 37.6464 69.165 36.0174 69.165 34.5695ZM59.9722 32.7596V39.4563H57.2684V32.9406C57.2684 32.0356 56.7277 31.3116 55.6461 31.3116C54.5646 31.3116 53.4831 32.2166 53.4831 33.1216V39.4563H50.7794V29.3207H53.4831V30.7687C53.4831 30.7687 54.3844 28.9587 57.0882 29.1397C60.1524 29.5017 59.9722 32.3976 59.9722 32.7596ZM45.9126 29.5017H48.6164V39.6373H45.9126V29.5017ZM45.9126 25.8818H48.6164V28.2348H45.9126V25.8818ZM44.8311 29.5017L41.9471 39.6373H39.2433L37.4408 32.9406L35.6383 39.6373H33.1148L30.2308 29.5017H33.1148L34.5568 36.0174L36.5396 29.5017H38.8828L40.5051 36.1984L41.9471 29.5017H44.8311ZM26.2653 25.7009H28.969V39.4563H26.2653V25.7009ZM21.3985 29.5017H24.1023V39.6373H21.3985V29.5017ZM21.3985 25.8818H24.1023V28.2348H21.3985V25.8818ZM19.2355 33.1216V39.4563H16.712V38.1894C16.712 38.1894 15.991 39.0943 14.9095 39.4563C13.2872 39.9993 10.944 39.6373 10.2229 37.8274C9.6822 36.3794 10.223 34.7505 11.665 34.0265C13.4675 33.1216 16.5317 33.3026 16.5317 33.3026C16.5317 33.3026 16.712 32.5786 16.3515 32.0356C16.1712 31.4926 15.6305 31.3116 14.9095 31.3116C13.107 31.3116 13.107 32.5786 13.107 32.5786L10.5835 32.3976C10.5835 32.3976 10.5835 31.1306 11.8452 30.2257C12.5662 29.6827 13.4675 29.5017 15.0897 29.5017C17.0725 29.5017 19.2355 30.2257 19.2355 33.1216ZM15.0897 37.6464C16.8922 37.2844 16.712 35.1125 16.712 35.1125H15.991C15.4502 35.1125 14.7292 35.1125 14.1885 35.2935C13.2872 35.4745 12.9267 35.8365 12.7465 36.1984C12.5662 36.7414 12.7465 37.2844 13.2872 37.6464C13.6477 37.8274 14.1885 37.8274 15.0897 37.6464ZM11.3045 25.7009V28.4157H7.15869V39.6373H4.09442V28.2348H0.128906V25.7009H11.3045Z" fill="#252A2F"/>
<path d="M77.8173 4.16284C77.8173 4.16284 75.2938 7.96369 70.9678 7.23971C66.6417 6.51574 65.9207 0 58.17 0C48.6167 0 47.5352 8.14468 47.5352 8.14468C47.5352 8.14468 50.2389 4.16284 54.3847 4.88681C58.5305 5.61078 60.1527 12.1265 68.6245 12.1265C77.0963 12.1265 77.8173 4.16284 77.8173 4.16284Z" fill="url(#paint0_linear_117_15115)"/>
<path d="M67.7235 16.2898C67.7235 16.2898 65.2 20.0906 60.874 19.3667C56.548 18.6427 55.827 12.127 48.0762 12.127C38.5229 12.127 37.4414 20.2716 37.4414 20.2716C37.4414 20.2716 40.1452 16.2898 44.2909 17.0138C48.2565 17.7377 50.059 24.2535 58.5308 24.2535C67.0025 24.2535 67.7235 16.2898 67.7235 16.2898Z" fill="url(#paint1_linear_117_15115)"/>
</g>
<defs>
<linearGradient id="paint0_linear_117_15115" x1="47.4504" y1="6.06326" x2="77.8011" y2="6.06326" gradientUnits="userSpaceOnUse">
<stop stop-color="#45A9B3"/>
<stop offset="0.389" stop-color="#3FAEB0"/>
<stop offset="1" stop-color="#2CBBAB"/>
</linearGradient>
<linearGradient id="paint1_linear_117_15115" x1="37.3008" y1="18.1902" x2="67.6496" y2="18.1902" gradientUnits="userSpaceOnUse">
<stop stop-color="#45A9B3"/>
<stop offset="0.389" stop-color="#3FAEB0"/>
<stop offset="1" stop-color="#2CBBAB"/>
</linearGradient>
<clipPath id="clip0_117_15115">
<rect width="115" height="40" fill="white" transform="translate(0.128906)"/>
</clipPath>
</defs>
</svg>
