<svg width="70" height="71" viewBox="0 0 70 71" fill="none" xmlns="http://www.w3.org/2000/svg">
<path d="M1.09375 35.5615V69.7412H69.4531V1.38184H1.09375V35.5615ZM56.1805 32.8271C57.8178 33.2071 59.3058 34.0634 60.457 35.2881C61.0908 35.9479 61.6417 36.6824 62.0977 37.4756C62.0977 37.5631 59.1445 39.5592 57.3453 40.6748C57.2797 40.7186 57.0172 40.4342 56.7273 40.0021C56.3989 39.4354 55.9322 38.9611 55.3709 38.6235C54.8095 38.286 54.1718 38.0961 53.5172 38.0717C51.4445 37.9295 50.1102 39.0178 50.1211 40.8061C50.104 41.2513 50.2059 41.693 50.4164 42.0857C50.8703 43.0318 51.718 43.5951 54.3758 44.7435C59.2703 46.849 61.3648 48.2381 62.6664 50.2123C64.1211 52.3998 64.4438 55.9326 63.4594 58.5467C62.3656 61.3904 59.6859 63.3209 55.8961 63.9607C54.1651 64.159 52.4162 64.1406 50.6898 63.9061C48.0551 63.4786 45.6246 62.2241 43.75 60.324C43.1211 59.6295 41.8961 57.8193 41.9727 57.6881C42.1723 57.5399 42.3825 57.4065 42.6016 57.2889L45.1172 55.8451L47.0805 54.7076L47.4906 55.3146C48.1828 56.3048 49.0637 57.1486 50.0828 57.7975C52.2703 58.9459 55.2562 58.7873 56.7328 57.4584C57.2286 56.9714 57.5378 56.326 57.6068 55.6345C57.6757 54.9431 57.5 54.2493 57.1102 53.674C56.5633 52.9139 55.4695 52.274 52.4125 50.9396C48.8852 49.4193 47.3648 48.4787 45.9758 46.9803C45.1086 45.9915 44.4684 44.8248 44.1 43.5623C43.8252 42.1199 43.7846 40.6426 43.9797 39.1873C44.707 35.7803 47.2609 33.4014 50.9906 32.6959C52.7179 32.4822 54.4675 32.5301 56.1805 32.8381V32.8271ZM40.1352 35.6928V38.4928H31.2594V63.7748H24.9648V38.4873H16.0672V35.7529C16.0433 34.8116 16.0689 33.8697 16.1438 32.9311C16.1766 32.8873 21.6125 32.8654 28.175 32.8764H40.1023L40.1352 35.6928Z" fill="#007ACC"/>
</svg>
